<svg width="61" height="60" viewBox="0 0 61 60" fill="none" xmlns="http://www.w3.org/2000/svg">
<g clip-path="url(#clip0_1_14817)">
<path d="M30.4961 5C44.3036 5 55.4961 16.1925 55.4961 30C55.4961 43.8075 44.3036 55 30.4961 55C16.6886 55 5.49609 43.8075 5.49609 30C5.49609 16.1925 16.6886 5 30.4961 5ZM30.4961 10C25.1918 10 20.1047 12.1071 16.354 15.8579C12.6032 19.6086 10.4961 24.6957 10.4961 30C10.4961 35.3043 12.6032 40.3914 16.354 44.1421C20.1047 47.8929 25.1918 50 30.4961 50C35.8004 50 40.8875 47.8929 44.6382 44.1421C48.389 40.3914 50.4961 35.3043 50.4961 30C50.4961 24.6957 48.389 19.6086 44.6382 15.8579C40.8875 12.1071 35.8004 10 30.4961 10ZM30.4961 15C31.1084 15.0001 31.6994 15.2249 32.157 15.6318C32.6146 16.0387 32.9069 16.5994 32.9786 17.2075L32.9961 17.5V28.965L39.7636 35.7325C40.212 36.1824 40.4723 36.7861 40.4917 37.421C40.5111 38.0558 40.2881 38.6743 39.868 39.1507C39.4479 39.6271 38.8622 39.9258 38.2299 39.986C37.5976 40.0462 36.9661 39.8635 36.4636 39.475L36.2286 39.2675L28.7286 31.7675C28.34 31.3786 28.0905 30.8725 28.0186 30.3275L27.9961 30V17.5C27.9961 16.837 28.2595 16.2011 28.7283 15.7322C29.1972 15.2634 29.8331 15 30.4961 15Z" fill="black"/>
</g>
<defs>
<clipPath id="clip0_1_14817">
<rect width="60" height="60" fill="white" transform="translate(0.5)"/>
</clipPath>
</defs>
</svg>
