<svg width="36" height="36" viewBox="0 0 36 36" fill="none" xmlns="http://www.w3.org/2000/svg">
<path d="M24 4.5C25.9891 4.5 27.8968 5.29018 29.3033 6.6967C30.7098 8.10322 31.5 10.0109 31.5 12V24C31.5 25.9891 30.7098 27.8968 29.3033 29.3033C27.8968 30.7098 25.9891 31.5 24 31.5H12C10.0109 31.5 8.10322 30.7098 6.6967 29.3033C5.29018 27.8968 4.5 25.9891 4.5 24V12C4.5 10.0109 5.29018 8.10322 6.6967 6.6967C8.10322 5.29018 10.0109 4.5 12 4.5H24ZM18 12C16.4087 12 14.8826 12.6321 13.7574 13.7574C12.6321 14.8826 12 16.4087 12 18C12 19.5913 12.6321 21.1174 13.7574 22.2426C14.8826 23.3679 16.4087 24 18 24C19.5913 24 21.1174 23.3679 22.2426 22.2426C23.3679 21.1174 24 19.5913 24 18C24 16.4087 23.3679 14.8826 22.2426 13.7574C21.1174 12.6321 19.5913 12 18 12ZM18 15C18.7956 15 19.5587 15.3161 20.1213 15.8787C20.6839 16.4413 21 17.2044 21 18C21 18.7956 20.6839 19.5587 20.1213 20.1213C19.5587 20.6839 18.7956 21 18 21C17.2044 21 16.4413 20.6839 15.8787 20.1213C15.3161 19.5587 15 18.7956 15 18C15 17.2044 15.3161 16.4413 15.8787 15.8787C16.4413 15.3161 17.2044 15 18 15ZM24.75 9.75C24.3522 9.75 23.9706 9.90804 23.6893 10.1893C23.408 10.4706 23.25 10.8522 23.25 11.25C23.25 11.6478 23.408 12.0294 23.6893 12.3107C23.9706 12.592 24.3522 12.75 24.75 12.75C25.1478 12.75 25.5294 12.592 25.8107 12.3107C26.092 12.0294 26.25 11.6478 26.25 11.25C26.25 10.8522 26.092 10.4706 25.8107 10.1893C25.5294 9.90804 25.1478 9.75 24.75 9.75Z" fill="#2D3E99"/>
</svg>
