<svg width="35" height="36" viewBox="0 0 35 36" fill="none" xmlns="http://www.w3.org/2000/svg">
<path d="M27.7083 4.5C28.4819 4.5 29.2237 4.81607 29.7707 5.37868C30.3177 5.94129 30.625 6.70435 30.625 7.5V28.5C30.625 29.2956 30.3177 30.0587 29.7707 30.6213C29.2237 31.1839 28.4819 31.5 27.7083 31.5H7.29167C6.51812 31.5 5.77625 31.1839 5.22927 30.6213C4.68229 30.0587 4.375 29.2956 4.375 28.5V7.5C4.375 6.70435 4.68229 5.94129 5.22927 5.37868C5.77625 4.81607 6.51812 4.5 7.29167 4.5H27.7083ZM26.9792 27.75V19.8C26.9792 18.5031 26.4783 17.2593 25.5867 16.3422C24.6951 15.4252 23.4859 14.91 22.225 14.91C20.9854 14.91 19.5417 15.69 18.8417 16.86V15.195H14.7729V27.75H18.8417V20.355C18.8417 19.2 19.7458 18.255 20.8688 18.255C21.4102 18.255 21.9295 18.4762 22.3124 18.8701C22.6953 19.2639 22.9104 19.798 22.9104 20.355V27.75H26.9792ZM10.0333 12.84C10.6831 12.84 11.3063 12.5745 11.7657 12.1019C12.2252 11.6293 12.4833 10.9883 12.4833 10.32C12.4833 8.925 11.3896 7.785 10.0333 7.785C9.37969 7.785 8.75281 8.05208 8.29061 8.52748C7.82841 9.00289 7.56875 9.64768 7.56875 10.32C7.56875 11.715 8.67708 12.84 10.0333 12.84ZM12.0604 27.75V15.195H8.02083V27.75H12.0604Z" fill="#2D3E99"/>
</svg>
