<svg width="123" height="28" viewBox="0 0 123 28" fill="none" xmlns="http://www.w3.org/2000/svg">
<g clip-path="url(#clip0_1_14644)">
<path fill-rule="evenodd" clip-rule="evenodd" d="M7.72962 1.75V28H0.5V1.75H7.72962Z" fill="#5D6A83"/>
<path fill-rule="evenodd" clip-rule="evenodd" d="M11.3438 1.75H26.7067C31.6978 1.75 35.7438 5.66751 35.7438 10.5C35.7438 15.3325 31.6978 19.25 26.7067 19.25H18.5734V28H11.3438V1.75ZM18.5734 12.25H26.7067C27.705 12.25 28.5141 11.4665 28.5141 10.5C28.5141 9.53351 27.705 8.75 26.7067 8.75H18.5734V12.25Z" fill="#5D6A83"/>
<path fill-rule="evenodd" clip-rule="evenodd" d="M62.8546 1.75V15.3125C62.8546 18.4536 65.4845 21 68.7287 21C71.9729 21 74.6029 18.4536 74.6029 15.3125V1.75H81.8326V15.3125C81.8326 22.3196 75.9658 28 68.7287 28C61.4917 28 55.625 22.3196 55.625 15.3125V1.75H62.8546Z" fill="#5D6A83"/>
<path fill-rule="evenodd" clip-rule="evenodd" d="M38.4562 14C38.4562 7.2345 44.1206 1.75 51.108 1.75H52.9154V8.75H51.108C48.1134 8.75 45.6858 11.1005 45.6858 14V14.875C45.6858 22.1237 39.6168 28 32.1302 28H31.2266V21H32.1302C35.624 21 38.4562 18.2577 38.4562 14.875V14Z" fill="#5D6A83"/>
<path d="M122.5 2.625C122.5 4.07475 121.287 5.25 119.789 5.25C118.292 5.25 117.078 4.07475 117.078 2.625C117.078 1.17525 118.292 0 119.789 0C121.287 0 122.5 1.17525 122.5 2.625Z" fill="#5D6A83"/>
<path d="M89.5967 27.9996L93.0466 14.0123L95.6115 22.4271C97.1405 27.446 104.483 27.446 106.013 22.4271L108.577 14.0123L112.027 27.9996H119.459L114.035 6.00527C112.745 0.774834 105.133 0.581173 103.56 5.73886L100.812 14.7579L98.063 5.73887C96.4915 0.581203 88.8784 0.774806 87.5884 6.00526L82.1641 27.9996H89.5967Z" fill="#5D6A83"/>
</g>
<defs>
<clipPath id="clip0_1_14644">
<rect width="122" height="28" fill="white" transform="translate(0.5)"/>
</clipPath>
</defs>
</svg>
