<svg width="57" height="22" viewBox="0 0 57 22" fill="none" xmlns="http://www.w3.org/2000/svg">
<g clip-path="url(#clip0_1_14616)">
<path d="M13.7926 0C11.6057 0 9.50832 0.88737 7.96193 2.4669L2.91515 7.62183C1.36875 9.20135 0.5 11.3436 0.5 13.5774C0.5 18.2291 4.19179 22 8.74586 22C10.9328 22 13.0301 21.1126 14.5765 19.5331L18.0674 15.9674C18.0674 15.9673 18.0675 15.9675 18.0674 15.9674L28.2387 5.57817C28.9772 4.8238 29.9789 4.4 31.0234 4.4C32.772 4.4 34.2545 5.5641 34.7685 7.17498L37.9785 3.89617C36.5141 1.55345 33.9464 0 31.0234 0C28.8364 0 26.7391 0.88737 25.1927 2.4669L11.5306 16.4218C10.792 17.1762 9.79033 17.6 8.74586 17.6C6.57086 17.6 4.80769 15.7991 4.80769 13.5774C4.80769 12.5106 5.2226 11.4874 5.96115 10.7331L11.0079 5.57817C11.7465 4.8238 12.7481 4.4 13.7926 4.4C15.5413 4.4 17.0237 5.56415 17.5377 7.17509L20.7478 3.89625C19.2834 1.55349 16.7157 0 13.7926 0Z" fill="#5D6A83"/>
<path d="M28.763 16.4218C28.0244 17.1762 27.0227 17.6 25.9783 17.6C24.2299 17.6 22.7475 16.4362 22.2334 14.8256L19.0234 18.1043C20.4879 20.4467 23.0555 22 25.9783 22C28.1652 22 30.2626 21.1126 31.809 19.5331L45.4711 5.57817C46.2096 4.8238 47.2113 4.4 48.2558 4.4C50.4308 4.4 52.194 6.20095 52.194 8.42255C52.194 9.48941 51.7791 10.5126 51.0405 11.2669L45.9938 16.4218C45.2552 17.1762 44.2535 17.6 43.209 17.6C41.4605 17.6 39.9781 16.436 39.464 14.8252L36.2541 18.104C37.7185 20.4467 40.2861 22 43.209 22C45.396 22 47.4933 21.1126 49.0397 19.5331L54.0865 14.3782C55.6329 12.7986 56.5017 10.6564 56.5017 8.42255C56.5017 3.7709 52.8099 0 48.2558 0C46.0689 0 43.9715 0.88737 42.4251 2.4669L28.763 16.4218Z" fill="#5D6A83"/>
</g>
<defs>
<clipPath id="clip0_1_14616">
<rect width="56" height="22" fill="white" transform="translate(0.5)"/>
</clipPath>
</defs>
</svg>
