<svg width="159" height="28" viewBox="0 0 159 28" fill="none" xmlns="http://www.w3.org/2000/svg">
<g clip-path="url(#clip0_1_14629)">
<path d="M89.1797 20.6659H92.5593V8.35384H89.1797V20.6659ZM89.1797 6.43386H92.5593V3.50586H89.1797V6.43386Z" fill="#5D6A83"/>
<path d="M94.7383 24.6996H98.1179V19.2755H98.1672C98.8876 20.3316 100.056 21.0276 101.845 21.0276C105.125 21.0276 107.362 18.5076 107.362 14.5236C107.362 10.6835 105.2 8.01953 101.82 8.01953C100.081 8.01953 98.8876 8.81158 98.0679 9.89154H97.9932V8.35553H94.7383V24.6996ZM101.124 18.3156C99.1116 18.3156 98.0432 16.8516 98.0432 14.6196C98.0432 12.4115 98.8876 10.6596 101 10.6596C103.088 10.6596 103.932 12.2916 103.932 14.6196C103.932 16.9475 102.839 18.3156 101.124 18.3156Z" fill="#5D6A83"/>
<path d="M114.1 21.0276C117.281 21.0276 119.468 19.5396 119.468 17.0675C119.468 14.1876 117.107 13.6116 114.97 13.1796C113.156 12.8196 111.466 12.7235 111.466 11.6676C111.466 10.7796 112.336 10.2996 113.653 10.2996C115.095 10.2996 115.964 10.7796 116.113 12.0996H119.169C118.921 9.62757 117.057 8.01953 113.703 8.01953C110.795 8.01953 108.509 9.29157 108.509 11.9556C108.509 14.6436 110.746 15.2435 113.032 15.6756C114.771 16.0116 116.386 16.1316 116.386 17.3076C116.386 18.1716 115.542 18.7236 114.051 18.7236C112.535 18.7236 111.491 18.0995 111.268 16.6836H108.137C108.335 19.2995 110.398 21.0276 114.1 21.0276Z" fill="#5D6A83"/>
<path d="M132.3 20.6675V8.35547H128.921V15.4595C128.921 17.0915 127.952 18.2435 126.361 18.2435C124.92 18.2435 124.249 17.4515 124.249 16.0115V8.35547H120.895V16.5635C120.895 19.2515 122.485 21.0035 125.318 21.0035C127.107 21.0035 128.101 20.3555 128.971 19.2275H129.045V20.6675H132.3Z" fill="#5D6A83"/>
<path d="M134.484 20.6676H137.864V13.5156C137.864 11.8835 138.784 10.8276 140.151 10.8276C141.393 10.8276 142.113 11.5475 142.113 12.9396V20.6676H145.493V13.5156C145.493 11.8835 146.363 10.8276 147.779 10.8276C149.022 10.8276 149.742 11.5475 149.742 12.9396V20.6676H153.122V12.3875C153.122 9.69953 151.606 8.01953 148.922 8.01953C147.307 8.01953 145.965 8.83552 145.095 10.1795H145.046C144.425 8.88354 143.132 8.01953 141.517 8.01953C139.753 8.01953 138.51 8.88354 137.815 10.0115H137.74V8.35553H134.484V20.6676Z" fill="#5D6A83"/>
<path d="M1.09766 20.6659H4.47715V3.50586H1.09766V20.6659Z" fill="#5D6A83"/>
<path d="M12.7417 21.0276C16.6927 21.0276 19.4012 18.1956 19.4012 14.5236C19.4012 10.8515 16.6927 8.01953 12.7417 8.01953C8.79059 8.01953 6.08203 10.8515 6.08203 14.5236C6.08203 18.1956 8.79059 21.0276 12.7417 21.0276ZM12.7417 18.5316C10.6543 18.5316 9.51123 16.9235 9.51123 14.5236C9.51123 12.1236 10.6543 10.4916 12.7417 10.4916C14.8042 10.4916 15.972 12.1236 15.972 14.5236C15.972 16.9235 14.8042 18.5316 12.7417 18.5316Z" fill="#5D6A83"/>
<path d="M26.5848 24.8676C28.4733 24.8676 30.1134 24.4356 31.1819 23.4755C32.1262 22.6355 32.6977 21.4595 32.6977 19.7316V8.35553H29.4425V9.65158H29.3928C28.6224 8.61957 27.4545 8.01953 25.8642 8.01953C22.6338 8.01953 20.3477 10.3715 20.3477 14.0435C20.3477 17.7635 23.1308 19.9235 25.9636 19.9235C27.5788 19.9235 28.5479 19.2995 29.2934 18.4836H29.3679V19.8276C29.3679 21.5076 28.4485 22.3956 26.5351 22.3956C24.9696 22.3956 24.249 21.7955 23.9756 21.0276H20.621C20.9689 23.4276 23.1059 24.8676 26.5848 24.8676ZM26.5351 17.3076C24.7956 17.3076 23.6526 16.0835 23.6526 13.9956C23.6526 11.9316 24.7956 10.6356 26.5102 10.6356C28.5479 10.6356 29.5419 12.1716 29.5419 13.9716C29.5419 15.7956 28.6722 17.3076 26.5351 17.3076Z" fill="#5D6A83"/>
<path d="M40.9135 21.0276C44.8646 21.0276 47.5732 18.1956 47.5732 14.5236C47.5732 10.8515 44.8646 8.01953 40.9135 8.01953C36.9625 8.01953 34.2539 10.8515 34.2539 14.5236C34.2539 18.1956 36.9625 21.0276 40.9135 21.0276ZM40.9135 18.5316C38.8262 18.5316 37.6832 16.9235 37.6832 14.5236C37.6832 12.1236 38.8262 10.4916 40.9135 10.4916C42.976 10.4916 44.144 12.1236 44.144 14.5236C44.144 16.9235 42.976 18.5316 40.9135 18.5316Z" fill="#5D6A83"/>
<path d="M154.352 6.33398C154.352 5.7817 154.815 5.33398 155.387 5.33398H157.458C158.03 5.33398 158.494 5.7817 158.494 6.33398C158.494 6.88627 158.03 7.33399 157.458 7.33399H155.387C154.815 7.33399 154.352 6.88627 154.352 6.33398Z" fill="#5D6A83"/>
<path fill-rule="evenodd" clip-rule="evenodd" d="M68.0696 0C76.0749 0 82.5653 6.26802 82.5653 14C82.5653 21.732 76.0749 28 68.0696 28C60.064 28 53.5742 21.732 53.5742 14C53.5742 6.26802 60.064 0 68.0696 0ZM67.5457 1.04761C65.892 1.27238 64.3173 2.55576 63.095 4.70218C62.7405 5.32478 62.4206 6.01262 62.1418 6.75531C63.8038 6.35192 65.6296 6.11409 67.5457 6.07731V1.04761ZM60.9167 7.09156C61.2634 6.04071 61.6874 5.07388 62.1769 4.21445C62.7828 3.15041 63.5019 2.23156 64.3121 1.52584C59.9063 2.76166 56.4336 6.11575 55.154 10.371C55.8847 9.58846 56.836 8.89392 57.9378 8.30872C58.8276 7.83601 59.8286 7.42637 60.9167 7.09156ZM60.5685 8.27477C60.1509 9.88001 59.9047 11.6434 59.8665 13.494H54.6588C54.8916 11.8968 56.2204 10.376 58.4428 9.19548C59.0874 8.85304 59.7996 8.54406 60.5685 8.27477ZM60.9146 13.494C60.9579 11.4744 61.259 9.57838 61.757 7.90314C63.4915 7.4221 65.4547 7.13132 67.5457 7.08953V9.27556C66.7656 11.2043 65.1746 12.7408 63.1775 13.494H60.9146ZM59.8665 14.506H54.6588C54.8916 16.1032 56.2204 17.624 58.4428 18.8045C59.0874 19.147 59.7996 19.4559 60.5685 19.7252C60.1509 18.12 59.9047 16.3566 59.8665 14.506ZM61.757 20.0969C61.259 18.4216 60.9579 16.5256 60.9146 14.506H63.1775C65.1746 15.2592 66.7656 16.7957 67.5457 18.7244V20.9105C65.4547 20.8687 63.4915 20.5779 61.757 20.0969ZM60.9167 20.9084C59.8286 20.5736 58.8276 20.164 57.9378 19.6913C56.836 19.1061 55.8847 18.4115 55.154 17.629C56.4336 21.8842 59.9063 25.2384 64.3121 26.4741C63.5019 25.7684 62.7828 24.8496 62.1769 23.7855C61.6874 22.9261 61.2634 21.9593 60.9167 20.9084ZM67.5457 26.9524C65.892 26.7276 64.3173 25.4442 63.095 23.2978C62.7405 22.6752 62.4206 21.9873 62.1418 21.2447C63.8038 21.6481 65.6296 21.8859 67.5457 21.9227V26.9524ZM71.8271 26.4741C72.6373 25.7684 73.3563 24.8496 73.9622 23.7855C74.4515 22.9261 74.8762 21.9593 75.2226 20.9084C76.3105 20.5736 77.3114 20.164 78.2014 19.6913C79.3031 19.1061 80.2547 18.4115 80.9853 17.629C79.7053 21.8842 76.2329 25.2384 71.8271 26.4741ZM73.9977 21.2447C73.7187 21.9873 73.3984 22.6752 73.044 23.2978C71.8218 25.4442 70.2472 26.7276 68.5935 26.9524V21.9227C70.5096 21.8859 72.3353 21.6481 73.9977 21.2447ZM75.5705 19.7252C76.3395 19.4559 77.0519 19.147 77.6963 18.8045C79.9191 17.624 81.2476 16.1032 81.4803 14.506H76.2728C76.2344 16.3566 75.988 18.12 75.5705 19.7252ZM75.2248 14.506C75.1813 16.5256 74.8805 18.4216 74.3819 20.0969C72.6476 20.5779 70.6845 20.8687 68.5935 20.9105V18.726C69.3734 16.7966 70.9647 15.2594 72.9623 14.506H75.2248ZM76.2728 13.494H81.4803C81.2476 11.8968 79.9191 10.376 77.6963 9.19548C77.0519 8.85304 76.3395 8.54406 75.5705 8.27477C75.988 9.88001 76.2344 11.6434 76.2728 13.494ZM74.3819 7.90314C74.8805 9.57838 75.1813 11.4744 75.2248 13.494H72.9624C70.9647 12.7406 69.3734 11.2034 68.5935 9.27395V7.08953C70.6845 7.13132 72.6476 7.4221 74.3819 7.90314ZM75.2226 7.09156C76.3105 7.42637 77.3114 7.83601 78.2014 8.30872C79.3031 8.89392 80.2547 9.58846 80.9853 10.371C79.7053 6.11575 76.2329 2.76166 71.8271 1.52584C72.6373 2.23156 73.3563 3.15041 73.9622 4.21445C74.4515 5.07388 74.8762 6.04071 75.2226 7.09156ZM68.5935 1.04761C70.2472 1.27238 71.8218 2.55576 73.044 4.70218C73.3984 5.32479 73.7187 6.01262 73.9977 6.75531C72.3353 6.35192 70.5096 6.11409 68.5935 6.07731V1.04761Z" fill="#5D6A83"/>
</g>
<defs>
<clipPath id="clip0_1_14629">
<rect width="158" height="28" fill="white" transform="translate(0.5)"/>
</clipPath>
</defs>
</svg>
