<svg width="128" height="28" viewBox="0 0 128 28" fill="none" xmlns="http://www.w3.org/2000/svg">
<g clip-path="url(#clip0_1_14626)">
<path fill-rule="evenodd" clip-rule="evenodd" d="M11.3239 19.6C10.367 19.6 9.44928 19.2313 8.77265 18.5749C8.09603 17.9185 7.71591 17.0283 7.71591 16.1V0H0.5V16.1C0.5 21.8988 5.3462 26.6 11.3239 26.6H19.2614V19.6H11.3239ZM32.9716 7C32.1187 7 31.2743 7.16295 30.4863 7.47956C29.6984 7.79616 28.9825 8.26022 28.3794 8.84523C27.7764 9.43024 27.298 10.1247 26.9716 10.8891C26.6453 11.6534 26.4773 12.4727 26.4773 13.3C26.4773 14.1273 26.6453 14.9466 26.9716 15.7109C27.298 16.4753 27.7764 17.1698 28.3794 17.7548C28.9825 18.3398 29.6984 18.8038 30.4863 19.1204C31.2743 19.437 32.1187 19.6 32.9716 19.6C34.694 19.6 36.3458 18.9363 37.5638 17.7548C38.7817 16.5733 39.4659 14.9709 39.4659 13.3C39.4659 11.6291 38.7817 10.0267 37.5638 8.84523C36.3458 7.66375 34.694 7 32.9716 7ZM19.2614 13.3C19.2614 5.9549 25.3999 0 32.9716 0C40.5432 0 46.6818 5.9549 46.6818 13.3C46.6818 20.6451 40.5432 26.6 32.9716 26.6C25.3999 26.6 19.2614 20.6451 19.2614 13.3ZM110.903 7C109.181 7 107.529 7.66375 106.311 8.84523C105.093 10.0267 104.409 11.6291 104.409 13.3C104.409 14.9709 105.093 16.5733 106.311 17.7548C107.529 18.9363 109.181 19.6 110.903 19.6C112.626 19.6 114.278 18.9363 115.496 17.7548C116.714 16.5733 117.398 14.9709 117.398 13.3C117.398 11.6291 116.714 10.0267 115.496 8.84523C114.278 7.66375 112.626 7 110.903 7ZM97.1932 13.3C97.1932 5.9549 103.332 0 110.903 0C118.475 0 124.614 5.9549 124.614 13.3C124.614 20.6451 118.475 26.6 110.903 26.6C103.332 26.6 97.1932 20.6451 97.1932 13.3ZM61.8352 0C54.2636 0 48.125 5.9549 48.125 13.3C48.125 20.6451 54.2636 26.6 61.8352 26.6H82.0398C83.4606 26.6 84.8309 26.39 86.1197 26.0008L89.9773 28L94.1394 20.4372C95.1967 18.512 95.7498 16.3641 95.75 14.1827V13.3C95.75 5.9549 89.6114 0 82.0398 0H61.8352ZM88.5341 13.3C88.5341 11.6291 87.8499 10.0267 86.632 8.84523C85.414 7.66375 83.7622 7 82.0398 7H61.8352C60.9824 7 60.1379 7.16295 59.35 7.47956C58.562 7.79616 57.8461 8.26022 57.2431 8.84523C56.64 9.43024 56.1616 10.1247 55.8353 10.8891C55.5089 11.6534 55.3409 12.4727 55.3409 13.3C55.3409 14.1273 55.5089 14.9466 55.8353 15.7109C56.1616 16.4753 56.64 17.1698 57.2431 17.7548C57.8461 18.3398 58.562 18.8038 59.35 19.1204C60.1379 19.437 60.9824 19.6 61.8352 19.6H82.0398C83.7535 19.6 85.3977 18.943 86.6142 17.7721C87.8307 16.6012 88.5208 15.0114 88.5341 13.349V13.3Z" fill="#5D6A83"/>
<path d="M127.499 1.75C127.499 2.21413 127.309 2.65925 126.97 2.98744C126.632 3.31563 126.173 3.5 125.695 3.5C125.216 3.5 124.757 3.31563 124.419 2.98744C124.081 2.65925 123.891 2.21413 123.891 1.75C123.891 1.28587 124.081 0.840752 124.419 0.512563C124.757 0.184374 125.216 0 125.695 0C126.173 0 126.632 0.184374 126.97 0.512563C127.309 0.840752 127.499 1.28587 127.499 1.75Z" fill="#5D6A83"/>
</g>
<defs>
<clipPath id="clip0_1_14626">
<rect width="127" height="28" fill="white" transform="translate(0.5)"/>
</clipPath>
</defs>
</svg>
