<svg width="60" height="60" viewBox="0 0 60 60" fill="none" xmlns="http://www.w3.org/2000/svg">
<path d="M30 54.75C29.7083 54.75 29.4375 54.7292 29.1875 54.6875C28.9375 54.6458 28.6875 54.5833 28.4375 54.5C22.8125 52.625 18.3333 49.1567 15 44.095C11.6667 39.0333 10 33.585 10 27.75V15.9375C10 14.8958 10.3025 13.9583 10.9075 13.125C11.5125 12.2917 12.2933 11.6875 13.25 11.3125L28.25 5.6875C28.8333 5.47917 29.4167 5.375 30 5.375C30.5833 5.375 31.1667 5.47917 31.75 5.6875L46.75 11.3125C47.7083 11.6875 48.49 12.2917 49.095 13.125C49.7 13.9583 50.0017 14.8958 50 15.9375V27.75C50 33.5833 48.3333 39.0317 45 44.095C41.6667 49.1583 37.1875 52.6267 31.5625 54.5C31.3125 54.5833 31.0625 54.6458 30.8125 54.6875C30.5625 54.7292 30.2917 54.75 30 54.75ZM30 49.75C34.3333 48.375 37.9167 45.625 40.75 41.5C43.5833 37.375 45 32.7917 45 27.75V15.9375L30 10.3125L15 15.9375V27.75C15 32.7917 16.4167 37.375 19.25 41.5C22.0833 45.625 25.6667 48.375 30 49.75Z" fill="black"/>
</svg>
