<svg width="24" height="24" viewBox="0 0 24 24" fill="none" xmlns="http://www.w3.org/2000/svg">
<path d="M7.00098 18.5C7.41456 18.499 7.75884 18.6407 8.05957 18.9414C8.36025 19.2421 8.50148 19.5856 8.5 19.998C8.49848 20.4135 8.35592 20.7596 8.05762 21.0615C7.76257 21.3601 7.4198 21.502 7.00195 21.5H7C6.58354 21.5 6.23963 21.3578 5.94141 21.0596C5.64317 20.7613 5.50051 20.4165 5.5 19.999C5.49958 19.5827 5.64175 19.2396 5.94043 18.9424C6.24064 18.6437 6.58556 18.5011 7.00098 18.5ZM17.001 18.5C17.4146 18.499 17.7588 18.6407 18.0596 18.9414C18.3603 19.2421 18.5015 19.5856 18.5 19.998C18.4985 20.4135 18.3559 20.7596 18.0576 21.0615C17.7626 21.3601 17.4198 21.502 17.002 21.5H17C16.5835 21.5 16.2396 21.3578 15.9414 21.0596C15.6432 20.7613 15.5005 20.4165 15.5 19.999C15.4996 19.5827 15.6417 19.2396 15.9404 18.9424C16.2406 18.6437 16.5856 18.5011 17.001 18.5ZM3.93457 2.5L4.74805 4.21484L4.88379 4.5H19.9502C20.1486 4.50005 20.2796 4.5707 20.3936 4.76562C20.5068 4.95937 20.5099 5.12169 20.4072 5.31738L16.8623 11.707V11.709C16.7192 11.9691 16.5342 12.16 16.3076 12.2949C16.079 12.431 15.8295 12.5 15.5498 12.5H7.80469L7.66211 12.7588L6.56152 14.7588L6.1543 15.5H18.5V16.5H7C6.43147 16.5 6.02786 16.2686 5.73242 15.7617C5.43338 15.2484 5.42491 14.7779 5.68945 14.2861L7.03809 11.8408L7.16113 11.6172L7.05176 11.3857L3.45215 3.78613L3.31641 3.5H1.5V2.5H3.93457ZM5.69922 6.2168L8.09961 11.2168L8.23535 11.5H15.8457L15.9883 11.2412L18.7383 6.24121L19.1455 5.5H5.35547L5.69922 6.2168Z" stroke="white"/>
</svg>
