<svg width="61" height="60" viewBox="0 0 61 60" fill="none" xmlns="http://www.w3.org/2000/svg">
<path d="M57.3891 27.6L49.2516 18.45C48.8095 17.9522 48.2665 17.5543 47.6587 17.2827C47.0509 17.0112 46.3923 16.8722 45.7266 16.875H38.2266V10.3125C38.2266 9.07577 37.7379 7.88913 36.8669 7.01112C35.9959 6.13312 34.8133 5.63489 33.5766 5.625H7.10156C5.85836 5.625 4.66608 6.11886 3.787 6.99794C2.90792 7.87701 2.41406 9.0693 2.41406 10.3125V42.1875C2.41406 43.4307 2.90792 44.623 3.787 45.5021C4.66608 46.3811 5.85836 46.875 7.10156 46.875H8.33906C8.40761 48.9274 9.28666 50.8691 10.7837 52.2748C12.2808 53.6805 14.2739 54.4357 16.3266 54.375C18.3829 54.4358 20.38 53.6818 21.8831 52.2771C23.3861 50.8724 24.2733 48.9308 24.3516 46.875H38.0016C38.0701 48.9274 38.9492 50.8691 40.4462 52.2748C41.9433 53.6805 43.9364 54.4357 45.9891 54.375C48.0454 54.4358 50.0425 53.6818 51.5456 52.2771C53.0486 50.8724 53.9358 48.9308 54.0141 46.875C55.2213 46.8175 56.3607 46.2995 57.1977 45.4276C58.0348 44.5557 58.5058 43.3961 58.5141 42.1875V30.7125C58.5406 29.571 58.1393 28.4608 57.3891 27.6ZM16.3266 49.6875C15.5165 49.7497 14.7148 49.4888 14.0965 48.9619C13.4782 48.4349 13.0935 47.6846 13.0266 46.875C13.0935 46.0654 13.4782 45.3151 14.0965 44.7881C14.7148 44.2612 15.5165 44.0003 16.3266 44.0625C17.1406 43.9999 17.9466 44.2597 18.5709 44.7857C19.1952 45.3118 19.5878 46.0622 19.6641 46.875C19.5878 47.6878 19.1952 48.4382 18.5709 48.9643C17.9466 49.4903 17.1406 49.7501 16.3266 49.6875ZM33.5766 21.2625V42.1875H22.5891C21.8132 41.2907 20.8507 40.5743 19.7689 40.0885C18.6872 39.6027 17.5123 39.3592 16.3266 39.375C15.1471 39.3647 13.9795 39.6108 12.9047 40.0965C11.8298 40.5821 10.8733 41.2956 10.1016 42.1875H7.10156V10.3125H33.5766V21.2625ZM38.2641 21.5625H45.7641L51.1641 27.675H38.2641V21.5625ZM46.0641 49.6875C45.254 49.7497 44.4523 49.4888 43.834 48.9619C43.2157 48.4349 42.831 47.6846 42.7641 46.875C42.831 46.0654 43.2157 45.3151 43.834 44.7881C44.4523 44.2612 45.254 44.0003 46.0641 44.0625C46.8781 43.9999 47.6841 44.2597 48.3084 44.7857C48.9327 45.3118 49.3253 46.0622 49.4016 46.875C49.3253 47.6878 48.9327 48.4382 48.3084 48.9643C47.6841 49.4903 46.8781 49.7501 46.0641 49.6875ZM46.0641 39.375C44.8846 39.3647 43.717 39.6108 42.6422 40.0965C41.5673 40.5821 40.6108 41.2956 39.8391 42.1875H38.2641V32.325H53.9016V42.1875H52.3266C51.5507 41.2907 50.5882 40.5743 49.5064 40.0885C48.4247 39.6027 47.2498 39.3592 46.0641 39.375Z" fill="black"/>
</svg>
